<?xml version="1.0" encoding="utf-8"?>
<!-- Generator: Adobe Illustrator 23.0.1, SVG Export Plug-In . SVG Version: 6.00 Build 0)  -->
<svg version="1.1" id="レイヤー_1" xmlns="http://www.w3.org/2000/svg" xmlns:xlink="http://www.w3.org/1999/xlink" x="0px"
	 y="0px" viewBox="0 0 479.4 489.6" style="enable-background:new 0 0 479.4 489.6;" xml:space="preserve">
<path d="M200.3,111.8c-30.4-29.6-60.7-59.2-90.7-88.5c7.4-7.8,14.5-15.3,22-23.3C167.7,35.3,203.4,70,239.4,105
	c36-35.1,71.7-69.9,107.8-105c7.2,7.8,14.3,15.5,21.6,23.5c-29.5,28.8-60.2,58.6-90.8,88.5c0.1,0.4,0.2,0.7,0.3,1.1h4.6h153.4
	c25.2,0,43,17.6,43,42.7c0,69.7,0,139.3,0,209c0,12.8,0.2,25.5-0.2,38.3c-0.7,20-17.1,37.2-37.3,38.1c-18.4,0.9-36.8,0.6-55.2,0.5
	c-3.6,0-5.6,1.2-7.5,4.2c-7.8,12.6-15.8,25.1-23.7,37.6c-5.2,8.2-13.8,8.1-19-0.1c-8.1-12.7-16.2-25.4-24.1-38.3
	c-1.5-2.5-3.3-3.4-6.2-3.4c-46.1,0.1-92.2,0.1-138.2,0c-3,0-4.6,1-6.2,3.5c-7.9,12.7-15.9,25.3-23.9,37.9
	c-5.5,8.6-13.9,8.5-19.5-0.1c-7.9-12.5-15.9-25-23.7-37.6c-1.7-2.8-3.7-3.7-6.9-3.7c-16.1,0-32.2,0.7-48.2-0.4
	c-24.3-1.7-39.4-19-39.5-43.4c0-41.7,0-83.4,0-125.1c0-38.8,0-77.7,0-116.5c0-22.5,13.4-38.7,35.3-42.9c2.3-0.4,4.6-0.4,6.9-0.4
	c51,0,102,0,153,0h4.7C200,112.6,200.2,112.2,200.3,111.8L200.3,111.8z"/>
</svg>
