<svg xmlns="http://www.w3.org/2000/svg" width="80" height="80" viewBox="0 0 80 80"><rect width="80" height="80" style="fill:#2b97f0"/><path d="M58.22,31c0,.4,0,.81,0,1.22,0,12.41-9.45,26.71-26.71,26.71A26.55,26.55,0,0,1,17.12,54.7a21,21,0,0,0,2.26.11A18.81,18.81,0,0,0,31,50.8a9.41,9.41,0,0,1-8.78-6.51,11.42,11.42,0,0,0,1.77.15,10.15,10.15,0,0,0,2.48-.32A9.4,9.4,0,0,1,19,34.9v-.12A9.44,9.44,0,0,0,23.22,36a9.4,9.4,0,0,1-2.91-12.56,26.67,26.67,0,0,0,19.36,9.82,10.89,10.89,0,0,1-.23-2.15,9.4,9.4,0,0,1,16.25-6.42,18.46,18.46,0,0,0,6-2.27,9.35,9.35,0,0,1-4.13,5.17,18.65,18.65,0,0,0,5.41-1.45A20.32,20.32,0,0,1,58.22,31Z" style="fill:#fff"/></svg>