<svg xmlns="http://www.w3.org/2000/svg" width="80" height="80" viewBox="0 0 80 80"><rect width="80" height="80" style="fill:#00b900"/><path d="M65,37c0-11.07-11.09-20.07-24.72-20.07S15.56,25.88,15.56,37c0,9.91,8.79,18.21,20.67,19.79,2.9.62,2.57,1.68,1.91,5.58-.1.62-.5,2.44,2.14,1.33S54.51,55.27,59.71,49.3C63.29,45.36,65,41.37,65,37Z" style="fill:#fff"/><path d="M47.68,32.08V42.86a.48.48,0,0,1-.49.48H45.46a.5.5,0,0,1-.39-.2l-4.94-6.66v6.39a.48.48,0,0,1-.49.49H37.92a.48.48,0,0,1-.49-.49V32.1a.48.48,0,0,1,.49-.49h1.71a.46.46,0,0,1,.39.21L45,38.49V32.1a.48.48,0,0,1,.49-.49h1.73a.48.48,0,0,1,.5.47Z" style="fill:#00b900"/><path d="M35.25,31.6H33.52a.47.47,0,0,0-.48.48V42.86a.47.47,0,0,0,.48.48h1.73a.47.47,0,0,0,.48-.48V32.08a.48.48,0,0,0-.48-.48Z" style="fill:#00b900"/><path d="M31.08,40.63H26.37V32.08a.48.48,0,0,0-.49-.48H24.15a.47.47,0,0,0-.48.48V42.86a.42.42,0,0,0,.14.33.48.48,0,0,0,.33.14h6.93a.48.48,0,0,0,.48-.49V41.11a.48.48,0,0,0-.47-.48Z" style="fill:#00b900"/><path d="M56.77,31.6H49.84a.49.49,0,0,0-.48.48V42.86a.49.49,0,0,0,.48.48h6.93a.48.48,0,0,0,.49-.48V41.13a.49.49,0,0,0-.49-.49H52.06V38.82h4.71a.48.48,0,0,0,.49-.48V36.6a.48.48,0,0,0-.49-.49H52.06V34.29h4.71a.48.48,0,0,0,.49-.48V32.08a.51.51,0,0,0-.49-.48Z" style="fill:#00b900"/></svg>